<svg width="900" height="820" viewBox="0 0 900 820" fill="none" xmlns="http://www.w3.org/2000/svg">
  <rect width="900" height="820" rx="48" fill="#F8F2E8"/>
  <rect x="36" y="34" width="828" height="752" rx="38" fill="url(#paint0_linear)"/>
  <rect x="86" y="102" width="516" height="560" rx="34" fill="#FFF9F0" stroke="#E5D8C6"/>
  <rect x="120" y="142" width="448" height="286" rx="28" fill="#EFE3CF"/>
  <rect x="138" y="162" width="412" height="246" rx="22" fill="#FFF7EB"/>
  <rect x="156" y="184" width="176" height="204" rx="20" fill="#DCC39C"/>
  <rect x="344" y="184" width="188" height="96" rx="20" fill="#F6EEDF"/>
  <rect x="344" y="292" width="188" height="96" rx="20" fill="#F6EEDF"/>
  <circle cx="244" cy="226" r="36" fill="#C86436"/>
  <path d="M188 360C209.333 320 243.6 300 290.8 300C338 300 371.733 320 392 360" stroke="#2B5B4D" stroke-width="22" stroke-linecap="round"/>
  <path d="M389 232C402.333 220.667 421.067 215 445.2 215C469.333 215 487.933 220.667 501 232" stroke="#D8AA57" stroke-width="12" stroke-linecap="round"/>
  <path d="M389 340C402.333 328.667 421.067 323 445.2 323C469.333 323 487.933 328.667 501 340" stroke="#D8AA57" stroke-width="12" stroke-linecap="round"/>
  <circle cx="674" cy="200" r="126" fill="#2B5B4D"/>
  <rect x="596" y="120" width="156" height="160" rx="28" fill="#FBF5EB"/>
  <circle cx="674" cy="177" r="30" fill="#C86436"/>
  <path d="M629 246C646.067 214 673.467 198 711.2 198C748.933 198 775.867 214 792 246" stroke="#D8AA57" stroke-width="18" stroke-linecap="round"/>
  <rect x="580" y="390" width="232" height="210" rx="36" fill="#FFF9F0" stroke="#E5D8C6"/>
  <rect x="612" y="430" width="168" height="18" rx="9" fill="#E8D6BD"/>
  <rect x="612" y="466" width="126" height="18" rx="9" fill="#E8D6BD"/>
  <rect x="612" y="528" width="144" height="16" rx="8" fill="#E8D6BD"/>
  <rect x="612" y="558" width="112" height="16" rx="8" fill="#E8D6BD"/>
  <circle cx="734" cy="496" r="30" fill="#2B5B4D"/>
  <path d="M726 482L748 496L726 510V482Z" fill="#FBF5EB"/>
  <rect x="114" y="492" width="232" height="126" rx="28" fill="#2B5B4D"/>
  <path d="M142 582C167.067 542.667 207.333 523 262.8 523C318.267 523 357.933 542.667 381.8 582" stroke="#FBF5EB" stroke-width="16" stroke-linecap="round"/>
  <circle cx="230" cy="528" r="30" fill="#FBF5EB"/>
  <rect x="374" y="492" width="170" height="126" rx="28" fill="#FFF9F0" stroke="#E5D8C6"/>
  <rect x="398" y="520" width="82" height="16" rx="8" fill="#E8D6BD"/>
  <rect x="398" y="550" width="116" height="16" rx="8" fill="#E8D6BD"/>
  <rect x="398" y="580" width="92" height="16" rx="8" fill="#E8D6BD"/>
  <rect x="662" y="650" width="114" height="48" rx="24" fill="#C86436"/>
  <path d="M698 674H740" stroke="#FBF5EB" stroke-width="10" stroke-linecap="round"/>
  <circle cx="720" cy="96" r="28" fill="#D8AA57"/>
  <defs>
    <linearGradient id="paint0_linear" x1="94" y1="60" x2="822" y2="746" gradientUnits="userSpaceOnUse">
      <stop stop-color="#FBF5EB"/>
      <stop offset="1" stop-color="#F0E2CC"/>
    </linearGradient>
  </defs>
</svg>
